# xmcd
#
# Track frame offsets: 
#        151
#        15407
#        33128
#        51775
#        74720
#        97958
#        115507
#        132071
#        152055
#        171993
#        186249
#        203850
#        218194
#        236014
#        252598
#        264948
#        282204
#        295314
#
# Disc length: 4138 seconds
#
# Revision: 0
# Processed by: cddbd v1.5.1PL0 Copyright (c) Steve Scherf et al.
# Submitted via: ExactAudioCopy v0.95a5
#
DISCID=04102812
DTITLE=Festival City Big Band - Easy To Love
DYEAR=2001
DGENRE=Big Band
TTITLE0=Broadway
TTITLE1=New Sneakerin'
TTITLE2=My Funny Valentine
TTITLE3=Pressure Cooker
TTITLE4=Safety Net Blues
TTITLE5=All of Me
TTITLE6=You Make Me Feel So Young
TTITLE7=Sweet Georgia Brown
TTITLE8=All the Way
TTITLE9=A String of Pearls
TTITLE10=Nightowl
TTITLE11=Don't Get Around Much Anymore
TTITLE12=Since I Fell for You
TTITLE13=Juan of These Days
TTITLE14=The Glory of Love
TTITLE15=Blues in the Night
TTITLE16=The Lady Is a Tramp
TTITLE17=Easy to Love
EXTD=
EXTT0=
EXTT1=
EXTT2=
EXTT3=
EXTT4=
EXTT5=
EXTT6=
EXTT7=
EXTT8=
EXTT9=
EXTT10=
EXTT11=
EXTT12=
EXTT13=
EXTT14=
EXTT15=
EXTT16=
EXTT17=
PLAYORDER=
